<?xml version="1.0" standalone="no"?>
<!DOCTYPE svg PUBLIC "-//W3C//DTD SVG 1.1//EN" "http://www.w3.org/Graphics/SVG/1.1/DTD/svg11.dtd">
<svg width="21mm" height="134mm" viewBox="0 -134 21 134" xmlns="http://www.w3.org/2000/svg" version="1.1">
<title>OpenSCAD Model</title>
<path d="
M 20.12,-133.35 L 0,-133.35 L 0,-0 L 20.12,-0 z
M 6.8257,-128.843 L 6.29646,-129.196 L 5.94283,-129.726 L 5.81865,-130.35 L 5.94283,-130.974 L 6.29646,-131.504
 L 6.8257,-131.857 L 7.45,-131.981 L 8.07428,-131.857 L 8.60353,-131.504 L 8.95715,-130.974 L 9.08134,-130.35
 L 8.95715,-129.726 L 8.60353,-129.196 L 8.07428,-128.843 L 7.45,-128.719 z
M 11.9057,-128.843 L 11.3764,-129.196 L 11.0228,-129.726 L 10.8987,-130.35 L 11.0228,-130.974 L 11.3764,-131.504
 L 11.9057,-131.857 L 12.53,-131.981 L 13.1543,-131.857 L 13.6835,-131.504 L 14.0372,-130.974 L 14.1613,-130.35
 L 14.0372,-129.726 L 13.6835,-129.196 L 13.1543,-128.843 L 12.53,-128.719 z
M 6.8257,-1.49283 L 6.29646,-1.84645 L 5.94283,-2.3757 L 5.81865,-3 L 5.94283,-3.62428 L 6.29646,-4.15353
 L 6.8257,-4.50716 L 7.45,-4.63133 L 8.07428,-4.50716 L 8.60353,-4.15353 L 8.95715,-3.62428 L 9.08134,-3
 L 8.95715,-2.3757 L 8.60353,-1.84645 L 8.07428,-1.49283 L 7.45,-1.36865 z
M 11.9057,-1.49283 L 11.3764,-1.84645 L 11.0228,-2.3757 L 10.8987,-3 L 11.0228,-3.62428 L 11.3764,-4.15353
 L 11.9057,-4.50716 L 12.53,-4.63133 L 13.1543,-4.50716 L 13.6835,-4.15353 L 14.0372,-3.62428 L 14.1613,-3
 L 14.0372,-2.3757 L 13.6835,-1.84645 L 13.1543,-1.49283 L 12.53,-1.36865 z
" stroke="black" fill="lightgray" stroke-width="0.5"/>
</svg>
