<?xml version="1.0" encoding="UTF-8" standalone="no"?>
<svg
   width="51mm"
   height="134mm"
   viewBox="0 -134 51 134"
   version="1.1"
   id="svg6"
   sodipodi:docname="blank-10hp.svg"
   inkscape:version="1.2.1 (9c6d41e410, 2022-07-14)"
   inkscape:export-filename="../pdf/blank-10hp.pdf"
   inkscape:export-xdpi="96"
   inkscape:export-ydpi="96"
   xmlns:inkscape="http://www.inkscape.org/namespaces/inkscape"
   xmlns:sodipodi="http://sodipodi.sourceforge.net/DTD/sodipodi-0.dtd"
   xmlns="http://www.w3.org/2000/svg"
   xmlns:svg="http://www.w3.org/2000/svg">
  <defs
     id="defs10" />
  <sodipodi:namedview
     id="namedview8"
     pagecolor="#505050"
     bordercolor="#eeeeee"
     borderopacity="1"
     inkscape:showpageshadow="0"
     inkscape:pageopacity="0"
     inkscape:pagecheckerboard="0"
     inkscape:deskcolor="#505050"
     inkscape:document-units="mm"
     showgrid="false"
     inkscape:zoom="2.8677621"
     inkscape:cx="100.60109"
     inkscape:cy="228.74979"
     inkscape:window-width="3840"
     inkscape:window-height="2075"
     inkscape:window-x="0"
     inkscape:window-y="0"
     inkscape:window-maximized="1"
     inkscape:current-layer="svg6" />
  <title
     id="title2">OpenSCAD Model</title>
  <path
     d=" M 50.6,-133.35 L 0,-133.35 L 0,-0 L 50.6,-0 z M 6.8257,-128.843 L 6.29646,-129.196 L 5.94283,-129.726 L 5.81865,-130.35 L 5.94283,-130.974 L 6.29646,-131.504  L 6.8257,-131.857 L 7.45,-131.981 L 8.07428,-131.857 L 8.60353,-131.504 L 8.95715,-130.974 L 9.08134,-130.35  L 8.95715,-129.726 L 8.60353,-129.196 L 8.07428,-128.843 L 7.45,-128.719 z M 42.3857,-128.843 L 41.8565,-129.196 L 41.5028,-129.726 L 41.3786,-130.35 L 41.5028,-130.974 L 41.8565,-131.504  L 42.3857,-131.857 L 43.01,-131.981 L 43.6343,-131.857 L 44.1635,-131.504 L 44.5172,-130.974 L 44.6413,-130.35  L 44.5172,-129.726 L 44.1635,-129.196 L 43.6343,-128.843 L 43.01,-128.719 z M 6.8257,-1.49283 L 6.29646,-1.84645 L 5.94283,-2.3757 L 5.81865,-3 L 5.94283,-3.62428 L 6.29646,-4.15353  L 6.8257,-4.50716 L 7.45,-4.63133 L 8.07428,-4.50716 L 8.60353,-4.15353 L 8.95715,-3.62428 L 9.08134,-3  L 8.95715,-2.3757 L 8.60353,-1.84645 L 8.07428,-1.49283 L 7.45,-1.36865 z M 42.3857,-1.49283 L 41.8565,-1.84645 L 41.5028,-2.3757 L 41.3786,-3 L 41.5028,-3.62428 L 41.8565,-4.15353  L 42.3857,-4.50716 L 43.01,-4.63133 L 43.6343,-4.50716 L 44.1635,-4.15353 L 44.5172,-3.62428 L 44.6413,-3  L 44.5172,-2.3757 L 44.1635,-1.84645 L 43.6343,-1.49283 L 43.01,-1.36865 z "
     stroke="black"
     fill="lightgray"
     stroke-width="0.5"
     id="path4"
     style="vector-effect:non-scaling-stroke;-inkscape-stroke:hairline;stroke-width:0.26458333;stroke-dasharray:none" />
</svg>
