<?xml version="1.0" standalone="no"?>
<!DOCTYPE svg PUBLIC "-//W3C//DTD SVG 1.1//EN" "http://www.w3.org/Graphics/SVG/1.1/DTD/svg11.dtd">
<svg width="41mm" height="134mm" viewBox="0 -134 41 134" xmlns="http://www.w3.org/2000/svg" version="1.1">
<title>OpenSCAD Model</title>
<path d="
M 40.44,-133.35 L 0,-133.35 L 0,-0 L 40.44,-0 z
M 6.8257,-128.843 L 6.29646,-129.196 L 5.94283,-129.726 L 5.81865,-130.35 L 5.94283,-130.974 L 6.29646,-131.504
 L 6.8257,-131.857 L 7.45,-131.981 L 8.07428,-131.857 L 8.60353,-131.504 L 8.95715,-130.974 L 9.08134,-130.35
 L 8.95715,-129.726 L 8.60353,-129.196 L 8.07428,-128.843 L 7.45,-128.719 z
M 32.2257,-128.843 L 31.6965,-129.196 L 31.3428,-129.726 L 31.2186,-130.35 L 31.3428,-130.974 L 31.6965,-131.504
 L 32.2257,-131.857 L 32.85,-131.981 L 33.4743,-131.857 L 34.0035,-131.504 L 34.3572,-130.974 L 34.4813,-130.35
 L 34.3572,-129.726 L 34.0035,-129.196 L 33.4743,-128.843 L 32.85,-128.719 z
M 6.8257,-1.49283 L 6.29646,-1.84645 L 5.94283,-2.3757 L 5.81865,-3 L 5.94283,-3.62428 L 6.29646,-4.15353
 L 6.8257,-4.50716 L 7.45,-4.63133 L 8.07428,-4.50716 L 8.60353,-4.15353 L 8.95715,-3.62428 L 9.08134,-3
 L 8.95715,-2.3757 L 8.60353,-1.84645 L 8.07428,-1.49283 L 7.45,-1.36865 z
M 32.2257,-1.49283 L 31.6965,-1.84645 L 31.3428,-2.3757 L 31.2186,-3 L 31.3428,-3.62428 L 31.6965,-4.15353
 L 32.2257,-4.50716 L 32.85,-4.63133 L 33.4743,-4.50716 L 34.0035,-4.15353 L 34.3572,-3.62428 L 34.4813,-3
 L 34.3572,-2.3757 L 34.0035,-1.84645 L 33.4743,-1.49283 L 32.85,-1.36865 z
" stroke="black" fill="lightgray" stroke-width="0.5"/>
</svg>
