<?xml version="1.0" standalone="no"?>
<!DOCTYPE svg PUBLIC "-//W3C//DTD SVG 1.1//EN" "http://www.w3.org/Graphics/SVG/1.1/DTD/svg11.dtd">
<svg width="31mm" height="134mm" viewBox="0 -134 31 134" xmlns="http://www.w3.org/2000/svg" version="1.1">
<title>OpenSCAD Model</title>
<path d="
M 30.28,-133.35 L 0,-133.35 L 0,-0 L 30.28,-0 z
M 6.8257,-128.843 L 6.29646,-129.196 L 5.94283,-129.726 L 5.81865,-130.35 L 5.94283,-130.974 L 6.29646,-131.504
 L 6.8257,-131.857 L 7.45,-131.981 L 8.07428,-131.857 L 8.60353,-131.504 L 8.95715,-130.974 L 9.08134,-130.35
 L 8.95715,-129.726 L 8.60353,-129.196 L 8.07428,-128.843 L 7.45,-128.719 z
M 22.0657,-128.843 L 21.5365,-129.196 L 21.1828,-129.726 L 21.0586,-130.35 L 21.1828,-130.974 L 21.5365,-131.504
 L 22.0657,-131.857 L 22.69,-131.981 L 23.3143,-131.857 L 23.8435,-131.504 L 24.1972,-130.974 L 24.3213,-130.35
 L 24.1972,-129.726 L 23.8435,-129.196 L 23.3143,-128.843 L 22.69,-128.719 z
M 6.8257,-1.49283 L 6.29646,-1.84645 L 5.94283,-2.3757 L 5.81865,-3 L 5.94283,-3.62428 L 6.29646,-4.15353
 L 6.8257,-4.50716 L 7.45,-4.63133 L 8.07428,-4.50716 L 8.60353,-4.15353 L 8.95715,-3.62428 L 9.08134,-3
 L 8.95715,-2.3757 L 8.60353,-1.84645 L 8.07428,-1.49283 L 7.45,-1.36865 z
M 22.0657,-1.49283 L 21.5365,-1.84645 L 21.1828,-2.3757 L 21.0586,-3 L 21.1828,-3.62428 L 21.5365,-4.15353
 L 22.0657,-4.50716 L 22.69,-4.63133 L 23.3143,-4.50716 L 23.8435,-4.15353 L 24.1972,-3.62428 L 24.3213,-3
 L 24.1972,-2.3757 L 23.8435,-1.84645 L 23.3143,-1.49283 L 22.69,-1.36865 z
" stroke="black" fill="lightgray" stroke-width="0.5"/>
</svg>
