<?xml version="1.0" standalone="no"?>
 <!DOCTYPE svg PUBLIC "-//W3C//DTD SVG 1.1//EN" 
 "http://www.w3.org/Graphics/SVG/1.1/DTD/svg11.dtd"> 
<svg
  xmlns:svg="http://www.w3.org/2000/svg"
  xmlns="http://www.w3.org/2000/svg"
  xmlns:xlink="http://www.w3.org/1999/xlink"
  version="1.1"
  width="11.419840cm" height="13.342620cm" viewBox="0 0 114198400 133426200">
<title>SVG Picture created as mozzi2osc-Edge_Cuts.svg date 2022/10/05 19:36:53 </title>
  <desc>Picture generated by PCBNEW </desc>
<g style="fill:#000000; fill-opacity:1.000000;stroke:#000000; stroke-opacity:1.000000;
stroke-linecap:round; stroke-linejoin:round;"
 transform="translate(0 0) scale(1 1)">
</g>
<g style="fill:#000000; fill-opacity:0.0; 
stroke:#000000; stroke-width:0.000000; stroke-opacity:1; 
stroke-linecap:round; stroke-linejoin:round;">
</g>
<g style="fill:#000000; fill-opacity:0.0; 
stroke:#000000; stroke-width:100000.000000; stroke-opacity:1; 
stroke-linecap:round; stroke-linejoin:round;">
<circle cx="20370000.000000" cy="66705000.000000" r="3000000.000000" /> 
<path d="M450000 10825000
L40690000 10825000
" />
<path d="M40690000 10825000
L40690000 120045000
" />
<path d="M40690000 120045000
L450000 120045000
" />
<path d="M450000 120045000
L450000 10825000
" />
<circle cx="7450000.000000" cy="3050000.000000" r="1600000.000000" /> 
<circle cx="7000000.000000" cy="130390000.000000" r="1600000.000000" /> 
<path d="M73910000 16550000
L114150000 16550000
" />
<path d="M114150000 16550000
L114150000 125770000
" />
<path d="M114150000 125770000
L73910000 125770000
" />
<path d="M73910000 125770000
L73910000 16550000
" />
<circle cx="35560000.000000" cy="130390000.000000" r="1600000.000000" /> 
<circle cx="35560000.000000" cy="3050000.000000" r="1600000.000000" /> 
<path d="M50000 50000
L40590000 50000
" />
<path d="M40590000 50000
L40590000 133390000
" />
<path d="M40590000 133390000
L50000 133390000
" />
<path d="M50000 133390000
L50000 50000
" />
<g >
</g>
<g >
</g>
<g >
</g>
<g >
</g>
<g >
</g>
<g >
</g>
<g >
</g>
<g >
</g>
<g >
</g>
<g >
</g>
<g >
</g>
<g >
</g>
<g >
</g>
<g >
</g>
<g >
</g>
<g >
</g>
<g >
</g>
<g >
</g>
<g >
</g>
<g >
</g>
<g >
</g>
<g >
</g>
<g >
</g>
<g >
</g>
<g >
</g>
<g >
</g>
<g >
</g>
<g >
</g>
<g >
</g>
<g >
</g>
<g >
</g>
<g >
</g>
<g >
</g>
<g >
</g>
<g >
</g>
<g >
</g>
<g >
</g>
<g >
</g>
<g >
</g>
<g >
</g>
<g >
</g>
<g >
</g>
</g> 
</svg>
